name Walk7.mot
datacolumns 19
datarows 27
range 2.58200000 2.60800000
endheader

                time	   L_ground_force_vx	   L_ground_force_vy	   L_ground_force_vz	   L_ground_force_px	   L_ground_force_py	   L_ground_force_pz	   R_ground_force_vx	   R_ground_force_vy	   R_ground_force_vz	   R_ground_force_px	   R_ground_force_py	   R_ground_force_pz	   L_ground_torque_x	   L_ground_torque_y	   L_ground_torque_z	   R_ground_torque_x	   R_ground_torque_y	   R_ground_torque_z	
          2.58200000	          4.02801105	          8.32038006	         -1.12508186	          0.20268388	          0.00000000	          0.07437026	          0.00000000	          0.00000000	         -0.00000000	         -0.00000000	          0.00000000	         -0.00000000	          0.00000000	         -0.01707564	          0.00000000	          0.00000000	         -0.00000000	          0.00000000	
          2.58300000	          3.15913061	          6.25898076	         -1.09402546	          0.19102899	          0.00000000	          0.07022096	          0.00000000	          0.00000000	          0.00000000	         -0.00000000	          0.00000000	          0.00000000	          0.00000000	         -0.01282571	          0.00000000	          0.00000000	         -0.00000000	          0.00000000	
          2.58400000	          2.35218839	          4.34919899	         -1.06147553	          0.17964319	          0.00000000	          0.06615911	          0.00000000	          0.00000000	          0.00000000	         -0.00000000	          0.00000000	          0.00000000	          0.00000000	         -0.00888866	          0.00000000	          0.00000000	         -0.00000000	          0.00000000	
          2.58500000	          1.60496739	          2.58536021	         -1.02768206	          0.16854663	          0.00000000	          0.06219261	          0.00000000	          0.00000000	          0.00000000	         -0.00000000	          0.00000000	          0.00000000	          0.00000000	         -0.00525277	          0.00000000	          0.00000000	         -0.00000000	          0.00000000	
          2.58600000	          0.91521343	          0.96172088	         -0.99287848	          0.15775664	          0.00000000	          0.05832835	          0.00000000	          0.00000000	          0.00000000	         -0.00000000	          0.00000000	          0.00000000	          0.00000000	         -0.00190616	          0.00000000	          0.00000000	         -0.00000000	          0.00000000	
          2.58700000	          0.28064684	         -0.52750400	         -0.95728219	          0.14728794	          0.00000000	          0.05457224	          0.00000000	          0.00000000	          0.00000000	         -0.00000000	          0.00000000	          0.00000000	          0.00000000	          0.00116310	          0.00000000	          0.00000000	         -0.00000000	          0.00000000	
          2.58800000	         -0.30102675	         -1.88811546	         -0.92109510	          0.13715277	          0.00000000	          0.05092927	          0.00000000	          0.00000000	          0.00000000	         -0.00000000	          0.00000000	          0.00000000	          0.00000000	          0.00396701	          0.00000000	          0.00000000	         -0.00000000	          0.00000000	
          2.58900000	         -0.83210652	         -3.12590731	         -0.88450418	          0.12736106	          0.00000000	          0.04740359	          0.00000000	          0.00000000	          0.00000000	         -0.00000000	          0.00000000	          0.00000000	          0.00000000	          0.00651753	          0.00000000	          0.00000000	         -0.00000000	          0.00000000	
          2.59000000	         -1.31488733	         -4.24664487	         -0.84768204	          0.11792062	          0.00000000	          0.04399855	          0.00000000	          0.00000000	          0.00000000	         -0.00000000	          0.00000000	          0.00000000	          0.00000000	          0.00882656	          0.00000000	          0.00000000	         -0.00000000	          0.00000000	
          2.59100000	         -1.75165146	         -5.25604558	         -0.81078748	          0.10883724	          0.00000000	          0.04071676	          0.00000000	          0.00000000	          0.00000000	         -0.00000000	          0.00000000	          0.00000000	          0.00000000	          0.01090592	          0.00000000	          0.00000000	         -0.00000000	          0.00000000	
          2.59200000	         -2.14466100	         -6.15976145	         -0.77396606	          0.10011491	          0.00000000	          0.03756014	          0.00000000	          0.00000000	          0.00000000	         -0.00000000	          0.00000000	          0.00000000	          0.00000000	          0.01276727	          0.00000000	          0.00000000	         -0.00000000	          0.00000000	
          2.59300000	         -2.49615106	         -6.96336334	         -0.73735073	          0.09175587	          0.00000000	          0.03452999	          0.00000000	          0.00000000	          0.00000000	         -0.00000000	          0.00000000	          0.00000000	          0.00000000	          0.01442212	          0.00000000	          0.00000000	         -0.00000000	          0.00000000	
          2.59400000	         -2.80832359	         -7.67232671	         -0.70106230	          0.08376083	          0.00000000	          0.03162698	          0.00000000	          0.00000000	          0.00000000	         -0.00000000	          0.00000000	          0.00000000	          0.00000000	          0.01588176	          0.00000000	          0.00000000	         -0.00000000	          0.00000000	
          2.59500000	         -3.08334191	         -8.29201913	         -0.66521011	          0.07612904	          0.00000000	          0.02885129	          0.00000000	          0.00000000	          0.00000000	         -0.00000000	          0.00000000	          0.00000000	          0.00000000	          0.01715729	          0.00000000	          0.00000000	         -0.00000000	          0.00000000	
          2.59600000	         -3.32332580	         -8.82768910	         -0.62989256	          0.06885847	          0.00000000	          0.02620258	          0.00000000	          0.00000000	          0.00000000	         -0.00000000	          0.00000000	          0.00000000	          0.00000000	          0.01825953	          0.00000000	          0.00000000	         -0.00000000	          0.00000000	
          2.59700000	         -3.53034718	         -9.28445640	         -0.59519763	          0.06194587	          0.00000000	          0.02368007	          0.00000000	          0.00000000	          0.00000000	         -0.00000000	          0.00000000	          0.00000000	          0.00000000	          0.01919906	          0.00000000	          0.00000000	         -0.00000000	          0.00000000	
          2.59800000	         -3.70642639	         -9.66730364	         -0.56120349	          0.05538694	          0.00000000	          0.02128254	          0.00000000	          0.00000000	          0.00000000	         -0.00000000	          0.00000000	          0.00000000	          0.00000000	          0.01998616	          0.00000000	          0.00000000	         -0.00000000	          0.00000000	
          2.59900000	         -3.85352888	         -9.98106912	         -0.52797902	          0.04917637	          0.00000000	          0.01900844	          0.00000000	          0.00000000	          0.00000000	         -0.00000000	          0.00000000	          0.00000000	          0.00000000	          0.02063081	          0.00000000	          0.00000000	         -0.00000000	          0.00000000	
          2.60000000	         -3.97356251	        -10.23044082	         -0.49558433	          0.04330803	          0.00000000	          0.01685587	          0.00000000	          0.00000000	          0.00000000	         -0.00000000	          0.00000000	          0.00000000	          0.00000000	          0.02114269	          0.00000000	          0.00000000	         -0.00000000	          0.00000000	
          2.60100000	         -4.06837522	        -10.41995143	         -0.46407126	          0.03777499	          0.00000000	          0.01482262	          0.00000000	          0.00000000	          0.00000000	         -0.00000000	          0.00000000	          0.00000000	          0.00000000	          0.02153115	          0.00000000	          0.00000000	         -0.00000000	          0.00000000	
          2.60200000	         -4.13975311	        -10.55397450	         -0.43348395	          0.03256964	          0.00000000	          0.01290623	          0.00000000	          0.00000000	          0.00000000	         -0.00000000	          0.00000000	          0.00000000	          0.00000000	          0.02180523	          0.00000000	          0.00000000	         -0.00000000	          0.00000000	
          2.60300000	         -4.18941900	        -10.63672135	         -0.40385927	          0.02768381	          0.00000000	          0.01110402	          0.00000000	          0.00000000	          0.00000000	         -0.00000000	          0.00000000	          0.00000000	          0.00000000	          0.02197360	          0.00000000	          0.00000000	         -0.00000000	          0.00000000	
          2.60400000	         -4.21903124	        -10.67223902	         -0.37522731	          0.02310877	          0.00000000	          0.00941308	          0.00000000	          0.00000000	          0.00000000	         -0.00000000	          0.00000000	          0.00000000	          0.00000000	          0.02204463	          0.00000000	          0.00000000	         -0.00000000	          0.00000000	
          2.60500000	         -4.23018299	        -10.66440892	         -0.34761187	          0.01883541	          0.00000000	          0.00783033	          0.00000000	          0.00000000	          0.00000000	         -0.00000000	          0.00000000	          0.00000000	          0.00000000	          0.02202632	          0.00000000	          0.00000000	         -0.00000000	          0.00000000	
          2.60600000	         -4.22440169	        -10.61694626	         -0.32103085	          0.01485421	          0.00000000	          0.00635257	          0.00000000	          0.00000000	          0.00000000	         -0.00000000	          0.00000000	          0.00000000	          0.00000000	          0.02192633	          0.00000000	          0.00000000	         -0.00000000	          0.00000000	
          2.60700000	         -4.20314892	        -10.53340009	         -0.29549677	          0.01115537	          0.00000000	          0.00497646	          0.00000000	          0.00000000	          0.00000000	         -0.00000000	          0.00000000	          0.00000000	          0.00000000	          0.02175198	          0.00000000	          0.00000000	         -0.00000000	          0.00000000	
          2.60800000	         -4.16782042	        -10.41715410	         -0.27101709	          0.00772887	          0.00000000	          0.00369854	          0.00000000	          0.00000000	          0.00000000	         -0.00000000	          0.00000000	          0.00000000	          0.00000000	          0.02151027	          0.00000000	          0.00000000	         -0.00000000	          0.00000000	
